<svg width="131" height="46" viewBox="0 0 131 46" fill="none" xmlns="http://www.w3.org/2000/svg">
<rect x="1" y="1" width="129" height="44" fill="black" stroke="white" stroke-width="2"/>
<path d="M39.82 30H48.8V27.52H42.78V15.2H39.82V30ZM55.4123 30.28C58.2123 30.28 60.7723 28.12 60.7723 24.42C60.7723 20.7 58.2123 18.54 55.4123 18.54C52.5923 18.54 50.0323 20.7 50.0323 24.42C50.0323 28.12 52.5923 30.28 55.4123 30.28ZM55.4123 27.9C53.8723 27.9 53.0323 26.52 53.0323 24.42C53.0323 22.3 53.8723 20.94 55.4123 20.94C56.9323 20.94 57.7723 22.3 57.7723 24.42C57.7723 26.52 56.9323 27.9 55.4123 27.9ZM67.1719 34.86C70.9119 34.86 73.2919 33.16 73.2919 30.9C73.2919 28.92 71.8119 28.1 69.1119 28.1H67.1919C65.8919 28.1 65.4319 27.76 65.4319 27.18C65.4319 26.72 65.6119 26.48 65.9119 26.2C66.4119 26.38 66.9119 26.46 67.3519 26.46C69.7719 26.46 71.6919 25.2 71.6919 22.66C71.6919 21.98 71.4719 21.36 71.1719 20.98H73.0919V18.82H69.0519C68.5919 18.64 67.9919 18.54 67.3519 18.54C64.9919 18.54 62.8319 19.94 62.8319 22.58C62.8319 23.9 63.5719 24.96 64.3519 25.52V25.6C63.6519 26.08 63.0919 26.84 63.0919 27.68C63.0919 28.6 63.5319 29.2 64.1119 29.58V29.68C63.0719 30.24 62.5119 31.06 62.5119 32C62.5119 33.96 64.5519 34.86 67.1719 34.86ZM67.3519 24.66C66.3719 24.66 65.5919 23.9 65.5919 22.58C65.5919 21.26 66.3719 20.54 67.3519 20.54C68.3519 20.54 69.1119 21.26 69.1119 22.58C69.1119 23.9 68.3319 24.66 67.3519 24.66ZM67.6319 33C65.9919 33 64.9519 32.48 64.9519 31.54C64.9519 31.08 65.1719 30.64 65.6919 30.22C66.0919 30.34 66.5519 30.38 67.2319 30.38H68.5919C69.7919 30.38 70.4519 30.6 70.4519 31.4C70.4519 32.26 69.3119 33 67.6319 33ZM75.1855 30H78.1255V18.82H75.1855V30ZM76.6455 17C77.6655 17 78.3655 16.36 78.3655 15.38C78.3655 14.42 77.6655 13.8 76.6455 13.8C75.6255 13.8 74.9455 14.42 74.9455 15.38C74.9455 16.36 75.6255 17 76.6455 17ZM81.2597 30H84.1997V22.3C85.0197 21.5 85.5997 21.06 86.5197 21.06C87.5997 21.06 88.0997 21.64 88.0997 23.4V30H91.0397V23.02C91.0397 20.22 89.9797 18.54 87.5797 18.54C86.0597 18.54 84.8997 19.34 83.9397 20.3H83.8797L83.6397 18.82H81.2597V30Z" fill="white"/>
</svg>
