<svg width="180" height="46" viewBox="0 0 180 46" fill="none" xmlns="http://www.w3.org/2000/svg">
<path d="M4.5 40H15.54V37.56H11.48V27.64H15.54V25.14H4.5V27.64H8.5V37.56H4.5V40ZM28.5 40H31.46V27.6H36.44V25.14H23.54V27.6H28.5V40ZM50 29.86C48.58 29.86 47.44 31 47.44 32.4C47.44 33.82 48.58 34.96 50 34.96C51.4 34.96 52.54 33.82 52.54 32.4C52.54 31 51.4 29.86 50 29.86ZM64.06 40H68.66C73.54 40 76.64 37.5 76.64 32.5C76.64 27.48 73.54 25.14 68.48 25.14H64.06V40ZM66.98 37.62V27.52H68.34C71.56 27.52 73.6 28.8 73.6 32.5C73.6 36.22 71.56 37.62 68.34 37.62H66.98ZM83.38 40H86.58L88.46 36.72C88.88 35.98 89.3 35.22 89.82 34.32H89.9C90.42 35.22 90.86 35.98 91.28 36.72L93.24 40H96.6L91.78 32.46L96.26 25.14H93.16L91.42 28.26C91.04 28.94 90.66 29.64 90.16 30.56H90.08C89.56 29.64 89.14 28.94 88.76 28.26L86.98 25.14H83.68L88.18 32.42L83.38 40ZM114.96 31.18V25.94C114.96 25.14 115.04 24.5 115.08 24.1H112.22C112.3 24.48 112.34 25.14 112.34 25.94V31.26C112.34 36.18 110.66 37.92 106.78 39.26L108.92 41.28C113.76 39.14 114.96 36.12 114.96 31.18ZM107.72 24.26H104.88C104.96 24.88 105 25.5 105 26.06V33.22C105 34.12 104.94 34.94 104.9 35.32H107.7C107.66 34.94 107.6 34.12 107.6 33.22V26.08C107.6 25.28 107.68 24.64 107.72 24.26ZM101.14 27.86V30.58C101.6 30.56 102.3 30.52 103.3 30.52H116.44C117.48 30.52 118.2 30.52 118.64 30.58V27.92C118.08 28 117.48 28.06 116.42 28.06H103.3C102.32 28.06 101.5 27.92 101.14 27.86ZM121.82 30.74V33.9C122.58 33.84 123.92 33.78 125.04 33.78C127.4 33.78 133.98 33.78 135.8 33.78C136.64 33.78 137.66 33.88 138.14 33.9V30.74C137.6 30.78 136.72 30.88 135.78 30.88C134 30.88 127.4 30.88 125.04 30.88C124 30.88 122.56 30.8 121.82 30.74ZM157.98 27.58L155.92 26.3C155.48 26.46 154.8 26.54 154.18 26.54C153.56 26.54 149.36 26.54 148.48 26.54L147.56 28.82H154.3C153.98 30.3 152.82 32.7 151.46 34.26C149.7 36.24 147.48 37.98 143.4 39.22L145.76 41.32C149.52 39.84 151.92 38 153.82 35.68C155.64 33.46 156.78 30.8 157.32 29C157.48 28.5 157.76 27.96 157.98 27.58ZM151.46 24.4L148.52 23.44C148.34 24.14 147.92 25.06 147.62 25.54C146.64 27.26 144.88 29.84 141.38 31.98L143.62 33.64C146.5 31.68 148.88 28.86 150.24 26.44C150.46 26.02 150.98 25.1 151.46 24.4ZM169.435 39.56L171.115 40.94C171.315 40.8 171.555 40.58 171.975 40.36C174.235 39.22 177.095 37.06 178.755 34.9L177.235 32.68C175.875 34.62 173.915 36.2 172.275 36.9C172.275 35.68 172.275 28.06 172.275 26.46C172.275 25.56 172.415 24.76 172.415 24.72H169.455C169.455 24.76 169.595 25.54 169.595 26.44C169.595 28.06 169.595 37.04 169.595 38.1C169.595 38.64 169.535 39.18 169.435 39.56ZM160.175 39.28L162.615 40.9C164.335 39.38 165.575 37.4 166.195 35.16C166.715 33.14 166.775 28.92 166.775 26.54C166.775 25.72 166.915 24.82 166.915 24.74H163.975C164.095 25.24 164.175 25.76 164.175 26.58C164.175 28.98 164.155 32.78 163.575 34.48C163.035 36.2 161.955 38.04 160.175 39.28Z" fill="white"/>
<path d="M5.348 7.46V8.86H12.18V7.46H5.348ZM3.458 9.896V11.338H12.796V9.896H3.458ZM7.238 7.978V10.274C7.238 11.422 6.748 12.78 3.318 13.564C3.682 13.872 4.158 14.46 4.368 14.796C8.05 13.76 8.904 12.01 8.904 10.302V7.978H7.238ZM5.222 6.298C4.844 7.306 4.116 8.3 3.276 8.93C3.668 9.112 4.354 9.504 4.676 9.756C5.488 9.028 6.314 7.88 6.79 6.69L5.222 6.298ZM8.792 10.834L7.378 11.128C8.218 13.088 9.66 14.264 12.04 14.754C12.25 14.32 12.684 13.69 13.034 13.368C10.906 13.06 9.464 12.206 8.792 10.834ZM1.12 4.758V17.274H2.8V6.368H13.104V4.758H1.12ZM2.156 15.09V16.7H13.454V15.09H2.156ZM18.396 7.53V8.79H27.356V7.53H18.396ZM18.256 9.602C18.76 9.952 19.39 10.456 19.698 10.792L20.608 9.966C20.272 9.644 19.614 9.168 19.11 8.86L18.256 9.602ZM24.108 14.852C24.822 15.524 25.662 16.476 26.012 17.092L27.384 16.378C26.964 15.748 26.096 14.852 25.382 14.222L24.108 14.852ZM20.888 12.486H24.5V13.032H20.888V12.486ZM20.888 11.03H24.5V11.562H20.888V11.03ZM19.488 10.05V14.012H25.97V10.05H19.488ZM19.404 14.18C18.998 14.908 18.284 15.636 17.542 16.112C17.906 16.322 18.508 16.798 18.774 17.078C19.572 16.49 20.412 15.538 20.916 14.6L19.404 14.18ZM26.362 8.762C26.04 9.098 25.466 9.644 25.06 9.938L25.9 10.582C26.32 10.316 26.88 9.91 27.328 9.462L26.362 8.762ZM24.29 8.062L23.044 8.454C23.828 10.022 25.172 11.408 26.726 12.122C26.936 11.758 27.37 11.226 27.692 10.946C26.25 10.414 24.948 9.28 24.29 8.062ZM21.882 13.508V15.762C21.882 15.902 21.826 15.944 21.658 15.944C21.476 15.944 20.888 15.958 20.37 15.93C20.566 16.308 20.804 16.868 20.888 17.288C21.742 17.288 22.372 17.274 22.862 17.064C23.38 16.854 23.506 16.504 23.506 15.818V13.508H21.882ZM21.63 6.578C21.182 8.272 19.978 9.994 17.64 11.1C17.976 11.324 18.438 11.828 18.648 12.192C21.182 10.862 22.498 8.916 23.184 6.774L21.63 6.578ZM17.178 5.234V6.648H27.482V5.234H17.178ZM16.38 5.234V9.756C16.38 11.758 16.24 14.376 14.658 16.14C14.98 16.35 15.596 16.938 15.834 17.26C17.612 15.286 17.92 12.01 17.92 9.756V5.234H16.38ZM20.776 4.114V6.088H22.554V4.114H20.776ZM14.378 7.012C14.742 7.922 15.064 9.112 15.134 9.854L16.422 9.266C16.338 8.552 15.974 7.404 15.568 6.522L14.378 7.012ZM14.238 11.87L14.714 13.382C15.512 12.92 16.352 12.416 17.15 11.912L16.772 10.638C15.806 11.128 14.896 11.59 14.238 11.87ZM32.326 9.728V11.324H41.412V9.728H32.326ZM33.026 6.13V7.726H40.74V6.13H33.026ZM35.938 4.114V10.89H37.688V4.114H35.938ZM32.326 15.006L32.55 16.7C34.524 16.56 37.296 16.35 39.914 16.126V14.614C37.156 14.768 34.202 14.936 32.326 15.006ZM37.688 13.074C38.71 14.362 39.774 16.126 40.152 17.274L41.748 16.392C41.314 15.202 40.18 13.55 39.144 12.304L37.688 13.074ZM34.86 10.848C34.496 12.29 33.796 14.208 33.166 15.44L34.664 15.916C35.308 14.754 36.106 12.962 36.722 11.338L34.86 10.848ZM29.19 5.402C30.114 5.794 31.276 6.466 31.822 6.97L32.802 5.598C32.214 5.108 31.024 4.506 30.114 4.17L29.19 5.402ZM28.392 9.224C29.316 9.574 30.492 10.204 31.052 10.666L31.99 9.266C31.374 8.804 30.17 8.258 29.26 7.95L28.392 9.224ZM28.784 15.986L30.24 17.078C31.024 15.72 31.85 14.124 32.536 12.64L31.262 11.576C30.492 13.186 29.484 14.936 28.784 15.986ZM47.824 4.45C47.726 6.284 47.922 12.682 42.294 15.804C42.868 16.196 43.414 16.714 43.708 17.148C49.434 13.634 49.616 6.802 49.742 4.45H47.824ZM49.686 4.814L48.062 4.982C48.174 6.424 48.44 14.138 54.474 17.134C54.726 16.672 55.23 16.112 55.762 15.706C50.022 13.018 49.728 6.032 49.686 4.814ZM60.4319 4.94V6.592H71.9259V4.94H60.4319ZM59.8019 15.146V16.784H72.5559V15.146H59.8019ZM65.1359 5.528V16.182H66.9699V5.528H65.1359ZM67.8659 12.472C68.6359 13.256 69.7139 14.348 70.2179 15.02L71.4919 13.886C70.9459 13.256 69.8399 12.22 69.0699 11.492L67.8659 12.472ZM61.1039 9.686V11.324H71.2959V9.686H61.1039ZM77.5959 7.978H82.6779V8.748H77.5959V7.978ZM77.5959 5.948H82.6779V6.732H77.5959V5.948ZM75.8319 4.604V10.092H84.5259V4.604H75.8319ZM74.7119 10.82V17.302H76.4899V12.262H83.8119V17.288H85.6739V10.82H74.7119ZM75.6079 13.074V14.446H84.7079V13.074H75.6079ZM75.6079 15.3V16.728H84.7079V15.3H75.6079ZM88.4599 15.202L88.6839 16.84C91.2039 16.742 94.8999 16.574 98.3299 16.378L98.3859 14.838C94.8579 14.992 90.9659 15.132 88.4599 15.202ZM88.3899 11.03V12.598H100.038V11.03H88.3899ZM90.8819 8.342V9.882H97.4479V8.342H90.8819ZM91.8199 12.052C91.4699 13.228 90.7979 14.782 90.2239 15.804L91.6939 16.294C92.3239 15.356 93.0799 13.9 93.7379 12.584L91.8199 12.052ZM95.2919 13.494C96.4959 14.614 97.8399 16.21 98.4279 17.274L99.9819 16.336C99.3379 15.272 98.0359 13.802 96.7759 12.724L95.2919 13.494ZM94.1579 5.752C95.3479 7.376 97.7139 9.14 99.8139 10.12C100.122 9.616 100.5 9.014 100.906 8.594C98.6799 7.796 96.4539 6.2 94.9699 4.142H93.1919C92.1559 5.794 89.9159 7.796 87.5219 8.846C87.8719 9.21 88.3199 9.84 88.5159 10.246C90.8399 9.14 93.0239 7.348 94.1579 5.752Z" fill="white"/>
</svg>
