<svg width="16" height="94" viewBox="0 0 16 94" fill="none" xmlns="http://www.w3.org/2000/svg">
<path d="M6.016 8.816L7.968 8.816L9.12 5.456L9.984 2.992H10.048L10.928 5.456L12.08 8.816H14.032L10.848 0.608L9.184 0.608L6.016 8.816ZM6.016 18.2535H7.968L9.12 14.8935L9.984 12.4295H10.048L10.928 14.8935L12.08 18.2535H14.032L10.848 10.0455H9.184L6.016 18.2535ZM0.56 27.389L0.56 29.741H3.28L4.736 29.661C4.112 30.333 3.776 31.101 3.776 31.869C3.776 33.837 5.536 35.677 8.608 35.677C11.376 35.677 13.168 34.365 13.168 32.157C13.168 31.197 12.672 30.269 12.016 29.533V29.485L12.944 29.293V27.389H0.56ZM5.712 31.357C5.712 30.877 5.872 30.301 6.368 29.741H10.32C10.944 30.349 11.248 30.893 11.248 31.485C11.248 32.733 10.304 33.261 8.576 33.261C6.64 33.261 5.712 32.429 5.712 31.357ZM3.776 39.5654C3.776 40.5894 4.272 41.4854 4.944 42.2694V42.3334L4 42.5094V44.4294H9.216C11.824 44.4294 13.168 43.2614 13.168 40.9894C13.168 39.5654 12.64 38.3014 12 37.2454L10.432 38.0934C10.928 38.9094 11.28 39.7254 11.28 40.5574C11.28 41.6614 10.624 42.0294 9.744 42.0774C9.344 38.4774 8.336 36.9254 6.432 36.9254C4.896 36.9254 3.776 37.9654 3.776 39.5654ZM5.616 40.3334C5.616 39.6454 5.92 39.1654 6.608 39.1654C7.424 39.1654 8.016 39.8854 8.288 42.0774H6.48C5.92 41.5014 5.616 41.0054 5.616 40.3334ZM0.112 49.9625C0.112 52.9545 1.472 54.8585 3.28 54.8585C4.864 54.8585 5.52 53.6745 5.52 51.5145V49.9785C5.52 48.9385 5.792 48.5705 6.256 48.5705C6.624 48.5705 6.816 48.7145 7.04 48.9545C6.896 49.3545 6.832 49.7545 6.832 50.1065C6.832 52.0425 7.84 53.5785 9.872 53.5785C10.416 53.5785 10.912 53.4025 11.216 53.1625V54.6985H12.944V51.4665C13.088 51.0985 13.168 50.6185 13.168 50.1065C13.168 48.2185 12.048 46.4905 9.936 46.4905C8.88 46.4905 8.032 47.0825 7.584 47.7065H7.52C7.136 47.1465 6.528 46.6985 5.856 46.6985C5.12 46.6985 4.64 47.0505 4.336 47.5145H4.256C3.808 46.6825 3.152 46.2345 2.4 46.2345C0.832 46.2345 0.112 47.8665 0.112 49.9625ZM8.272 50.1065C8.272 49.3225 8.88 48.6985 9.936 48.6985C10.992 48.6985 11.568 49.3225 11.568 50.1065C11.568 50.9065 10.992 51.5145 9.936 51.5145C8.88 51.5145 8.272 50.8905 8.272 50.1065ZM1.6 50.3305C1.6 49.0185 2.016 48.1865 2.768 48.1865C3.136 48.1865 3.488 48.3625 3.824 48.7785C3.728 49.0985 3.696 49.4665 3.696 50.0105V51.0985C3.696 52.0585 3.52 52.5865 2.88 52.5865C2.192 52.5865 1.6 51.6745 1.6 50.3305ZM3.776 59.8868C3.776 60.9908 4.144 62.1108 4.752 62.9908L6.208 62.2068C5.808 61.5508 5.584 60.9108 5.584 60.1908C5.584 58.8628 6.336 57.9028 7.808 57.6948V63.2308C8.032 63.2788 8.448 63.3268 8.896 63.3268C11.376 63.3268 13.168 62.0628 13.168 59.5828C13.168 57.4708 11.376 55.4228 8.464 55.4228C5.504 55.4228 3.776 57.3748 3.776 59.8868ZM9.376 57.6628C10.688 57.8548 11.36 58.6868 11.36 59.6308C11.36 60.7828 10.592 61.3268 9.376 61.3268V57.6628ZM3.776 72.1686C3.776 72.9686 3.952 73.5926 4.112 74.0726L5.824 73.6886C5.728 73.4326 5.616 73.0966 5.616 72.7926C5.616 72.0086 6.096 71.5766 7.12 71.5766H11.104L11.104 73.8006H12.944L12.944 71.5766H15.376V69.6246L12.944 69.3686L12.848 67.9766H11.104V69.2246H7.12C5.12 69.2246 3.776 70.0406 3.776 72.1686ZM3.776 78.9924C3.776 81.2324 5.504 83.2804 8.464 83.2804C11.44 83.2804 13.168 81.2324 13.168 78.9924C13.168 76.7364 11.44 74.6884 8.464 74.6884C5.504 74.6884 3.776 76.7364 3.776 78.9924ZM5.68 78.9924C5.68 77.7604 6.784 77.0884 8.464 77.0884C10.16 77.0884 11.248 77.7604 11.248 78.9924C11.248 80.2084 10.16 80.8804 8.464 80.8804C6.784 80.8804 5.68 80.2084 5.68 78.9924ZM0.56 85.264L0.56 87.616H3.28L4.736 87.536C4.112 88.208 3.776 88.976 3.776 89.744C3.776 91.712 5.536 93.552 8.608 93.552C11.376 93.552 13.168 92.24 13.168 90.032C13.168 89.072 12.672 88.144 12.016 87.408V87.36L12.944 87.168V85.264H0.56ZM5.712 89.232C5.712 88.752 5.872 88.176 6.368 87.616H10.32C10.944 88.224 11.248 88.768 11.248 89.36C11.248 90.608 10.304 91.136 8.576 91.136C6.64 91.136 5.712 90.304 5.712 89.232Z" fill="white"/>
</svg>
